# Blender v3.6.4 OBJ File: ''
# www.blender.org
mtllib asteroid1.mtl
o Sphere
v -0.068567 0.103809 -0.237325
v -0.016025 0.543134 -0.154820
v 0.058642 0.388422 -0.349053
v 0.027394 0.222094 -0.315980
v 0.054388 0.003565 -0.032133
v 0.052231 0.514570 -0.254150
v 0.108893 0.462180 -0.275892
v 0.118636 0.152905 -0.234241
v 0.165764 0.265586 -0.280728
v 0.072489 0.059040 -0.184676
v 0.167573 0.427068 -0.200193
v 0.184612 0.171195 -0.167487
v 0.028335 0.568590 0.020646
v 0.147419 0.502841 -0.124217
v 0.251701 0.329164 -0.183379
v 0.097878 0.014789 -0.100180
v 0.050174 0.558239 -0.071320
v 0.255018 0.430239 -0.083437
v 0.285208 0.209257 -0.129095
v 0.300298 0.317677 -0.021154
v 0.227413 0.099170 -0.058935
v 0.201555 0.510740 -0.000675
v 0.278426 0.291092 0.113823
v 0.286304 0.194677 0.054456
v 0.218529 0.104069 0.085662
v 0.133050 0.023351 0.008396
v 0.225309 0.370703 0.183163
v 0.126113 0.546378 0.062972
v 0.156228 0.486740 0.171915
v 0.225915 0.248315 0.211265
v 0.201228 0.146924 0.199813
v 0.115984 0.306109 0.298756
v 0.133258 0.079748 0.168804
v 0.143763 0.179210 0.267099
v 0.080499 0.513129 0.175035
v 0.119088 0.414584 0.227536
v 0.076719 0.130447 0.302393
v 0.052446 0.058971 0.225274
v 0.044571 0.007706 0.090462
v -0.016045 0.470328 0.226490
v 0.030353 0.272059 0.293047
v 0.041634 0.549324 0.109946
v -0.036973 0.363374 0.279658
v -0.048314 0.183995 0.305042
v -0.070829 0.093120 0.263267
v -0.094973 0.446396 0.217465
v -0.118323 0.295703 0.286319
v -0.115355 0.044831 0.163500
v -0.042788 0.011766 0.146550
v -0.053260 0.544983 0.127298
v -0.125016 0.468585 0.128276
v -0.200258 0.199142 0.217803
v -0.181296 0.439628 0.139520
v -0.141258 0.516078 0.067409
v -0.267202 0.156121 0.072416
v -0.216408 0.104322 0.120068
v -0.126851 0.030907 0.050029
v -0.263945 0.424415 0.026112
v -0.301705 0.323478 0.005158
v -0.286803 0.190342 -0.014248
v -0.260222 0.319070 -0.150594
v -0.286872 0.254681 -0.092260
v -0.121677 0.036411 -0.033806
v -0.181857 0.508212 -0.069353
v -0.248287 0.428058 -0.101758
v -0.220575 0.139984 -0.139976
v -0.220990 0.092372 -0.052034
v -0.075509 0.552537 -0.003113
v -0.077175 0.531069 -0.107717
v -0.169194 0.430904 -0.221380
v -0.186388 0.322828 -0.248845
v -0.192952 0.205787 -0.197026
v -0.123948 0.055019 -0.130578
v -0.085686 0.459796 -0.273437
v -0.062869 0.337035 -0.340444
v -0.086798 0.210422 -0.300772
v -0.030533 0.021836 -0.131543
v -0.024110 0.026455 -0.000441
v 0.274007 0.431349 -0.026734
v 0.302348 0.363165 0.010534
v 0.292650 0.359842 0.082308
v 0.239292 0.488207 0.023966
v 0.225841 0.461691 0.121918
v 0.253290 0.397919 0.140184
v 0.270748 0.432554 -0.048437
v 0.306631 0.345968 -0.000507
v 0.295131 0.341967 0.087784
v 0.210978 0.470994 0.133615
v 0.247232 0.387822 0.158613
v 0.228674 0.500277 0.015078
v 0.216350 0.455774 0.022173
v 0.262937 0.344800 0.076218
v 0.250804 0.420473 -0.033046
v 0.267783 0.360569 0.010573
v 0.206592 0.442130 0.108507
v 0.231106 0.389029 0.119751
v -0.230775 0.227262 0.203880
v -0.216408 0.302809 0.224699
v -0.241492 0.395961 0.145496
v -0.283846 0.202834 0.106507
v -0.307542 0.325883 0.044780
v -0.279346 0.396605 0.059067
v -0.217951 0.207993 0.217463
v -0.282392 0.178232 0.093363
v -0.312455 0.323263 0.021041
v -0.277496 0.417669 0.040692
v -0.218683 0.415553 0.147194
v -0.196778 0.305985 0.242487
v -0.221222 0.235302 0.171230
v -0.191385 0.300296 0.212442
v -0.220741 0.376341 0.128670
v -0.278126 0.320554 0.040223
v -0.259709 0.204351 0.093685
v -0.254960 0.394609 0.046129
v -0.205687 0.282811 0.120740
v -0.194161 0.308499 0.133716
v -0.212517 0.346922 0.111224
v -0.234340 0.316553 0.066090
v -0.218539 0.274321 0.090591
v 0.209062 0.414826 0.060153
v 0.216692 0.398044 0.062474
v 0.226245 0.384640 0.048930
v 0.230209 0.387578 0.028017
v 0.223254 0.407673 0.015051
v 0.213074 0.427087 0.030239
vt 0.734616 0.406655
vt 0.689079 0.342315
vt 0.794392 0.293676
vt 0.713630 0.743016
vt 0.678319 0.660608
vt 0.721204 0.561533
vt 0.655388 0.455750
vt 0.659331 0.901110
vt 0.609744 0.781531
vt 0.623657 0.627093
vt 0.591272 0.533801
vt 0.626504 0.341903
vt 0.552878 0.438619
vt 0.546046 0.282548
vt 0.689098 0.234520
vt 0.498423 0.766907
vt 0.546915 0.655822
vt 0.634282 0.154944
vt 0.501208 0.149493
vt 0.509405 0.537235
vt 0.334562 0.950679
vt 0.427294 0.845601
vt 0.469690 0.406338
vt 0.453088 0.281661
vt 0.390588 0.718339
vt 0.390588 0.718339
vt 0.498423 0.766907
vt 0.593677 0.062500
vt 0.337208 0.091485
vt 0.453125 0.000000
vt 0.383038 0.214491
vt 0.451782 0.530835
vt 0.392101 0.593583
vt 0.389282 0.469165
vt 0.293360 0.875000
vt 0.312669 0.780174
vt 0.312582 0.656006
vt 0.311555 0.530981
vt 0.336748 0.386136
vt 0.390665 0.344178
vt 0.249389 0.485887
vt 0.221054 0.404735
vt 0.296914 0.344178
vt 0.170820 0.841342
vt 0.208642 0.306289
vt 0.296902 0.219059
vt 0.199919 0.148465
vt 0.172803 0.686634
vt 0.234338 0.718339
vt 0.221054 0.595265
vt 0.079157 0.048815
vt 0.147516 0.523151
vt 0.131538 0.415904
vt 0.084466 0.292801
vt 0.141642 0.220296
vt 0.055088 0.153620
vt 0.046955 0.375390
vt 0.131538 0.415904
vt 0.046955 0.375390
vt 0.010664 0.538824
vt 0.010664 0.538824
vt 0.088915 0.640758
vt 0.066931 0.793298
vt 0.015664 0.655822
vt 0.000000 0.399333
vt 0.000000 0.273040
vt 0.031154 0.911618
vt 0.000000 0.784407
vt 0.993268 0.527207
vt 0.951782 0.469165
vt 0.992171 0.399333
vt 1.000000 0.655822
vt 0.945557 0.768646
vt 0.937739 0.656003
vt 0.915655 0.537235
vt 0.906611 0.344360
vt 0.945396 0.911618
vt 0.872374 0.843190
vt 0.949425 0.148089
vt 0.959766 0.278455
vt 0.868449 0.212346
vt 0.859414 0.655822
vt 0.871569 0.414693
vt 0.804501 0.694669
vt 0.790497 0.152675
vt 0.828125 1.000000
vt 0.785227 0.524248
vt 0.797630 0.405349
vt 0.770918 0.846073
vt 0.451782 0.530835
vt 0.392101 0.593583
vt 0.803482 0.029735
vt 0.509405 0.537235
vt 0.546915 0.655822
vt 0.108913 0.719958
vt 0.088915 0.640758
vt 0.147516 0.523151
vt 0.993268 0.527207
vt 1.000000 0.655822
vt 0.000000 0.148089
vt 0.858032 0.530836
vt 0.454296 0.553903
vt 0.501046 0.559218
vt 0.501046 0.559218
vt 0.454296 0.553903
vt 0.491876 0.741297
vt 0.402768 0.700840
vt 0.402768 0.700840
vt 0.491876 0.741297
vt 0.405066 0.605663
vt 0.405066 0.605663
vt 0.530700 0.652360
vt 0.530700 0.652360
vt 0.477491 0.690948
vt 0.485978 0.648538
vt 0.477414 0.616365
vt 0.446374 0.634036
vt 0.444929 0.664099
vt 0.461650 0.618542
vt 0.083798 0.618692
vt 0.028106 0.627693
vt 0.028106 0.627693
vt 0.083798 0.618692
vt 0.133640 0.518486
vt 0.133640 0.518486
vt 0.022950 0.541540
vt 0.054121 0.403743
vt 0.054121 0.403743
vt 0.022950 0.541540
vt 0.121411 0.436407
vt 0.121411 0.436407
vt 0.015664 0.655822
vt 0.051569 0.535849
vt 0.080531 0.577784
vt 0.068711 0.485570
vt 0.097595 0.526315
vt 0.094178 0.494029
vn 0.1806 -0.6420 -0.7451
vn 0.2511 0.5900 -0.7673
vn 0.3101 -0.2411 -0.9196
vn 0.3957 0.8943 -0.2091
vn 0.8001 0.0480 -0.5979
vn 0.5688 0.3620 -0.7385
vn 0.6793 -0.5041 -0.5333
vn 0.7705 -0.0715 -0.6335
vn 0.6145 -0.5239 -0.5899
vn 0.3862 0.8942 -0.2264
vn 0.6089 0.6366 -0.4733
vn 0.5684 -0.8140 -0.1199
vn 0.9365 0.2305 -0.2642
vn 0.2424 0.9688 -0.0515
vn 0.8102 -0.5821 0.0695
vn 0.3557 0.9027 0.2422
vn 0.2191 -0.9744 0.0505
vn -0.2761 -0.9611 0.0104
vn 0.5093 -0.8121 0.2848
vn 0.5830 0.7697 0.2602
vn 0.4283 -0.8527 0.2992
vn 0.8505 0.1217 0.5117
vn 0.8968 -0.1766 0.4058
vn 0.1390 0.9721 0.1890
vn 0.3177 0.8660 0.3862
vn 0.2164 0.5237 0.8239
vn 0.4832 0.3648 0.7959
vn 0.4980 0.4659 0.7314
vn 0.6768 -0.2433 0.6948
vn 0.2331 0.9023 0.3626
vn 0.0291 -0.2360 0.9713
vn 0.0572 0.0844 0.9948
vn 0.0446 0.8842 0.4650
vn -0.1449 -0.3834 0.9121
vn 0.0058 -0.7343 0.6788
vn -0.0554 -0.8253 0.5619
vn 0.1759 -0.9235 0.3409
vn -0.0060 0.9773 0.2117
vn -0.2887 0.7098 0.6425
vn -0.2395 0.4694 0.8499
vn -0.1188 -0.9864 -0.1137
vn -0.0246 0.1272 0.9916
vn -0.2917 0.4345 0.8521
vn -0.5033 -0.1736 0.8465
vn -0.5004 -0.2562 0.8270
vn -0.6240 -0.5068 0.5948
vn -0.3806 -0.9124 0.1505
vn -0.4589 -0.7757 0.4332
vn -0.8059 -0.3528 0.4755
vn -0.5501 -0.8203 0.1564
vn -0.8510 -0.3506 -0.3910
vn -0.6328 0.6803 0.3699
vn -0.8348 -0.5499 -0.0283
vn -0.7422 -0.6670 0.0661
vn -0.9767 -0.1338 0.1681
vn -0.4223 0.9035 0.0734
vn -0.9918 -0.0992 -0.0810
vn -0.7530 0.6538 -0.0736
vn -0.9415 0.2182 -0.2569
vn -0.8734 -0.3761 -0.3094
vn -0.2751 0.9426 -0.1891
vn -0.4628 -0.8725 -0.1569
vn -0.5872 -0.7107 -0.3875
vn -0.6223 0.6756 -0.3954
vn -0.5602 -0.3957 -0.7277
vn -0.3230 0.8753 -0.3599
vn -0.3314 -0.9279 -0.1706
vn -0.2910 -0.8041 -0.5185
vn -0.1201 0.9830 -0.1392
vn -0.1240 0.5925 -0.7960
vn -0.0985 -0.2806 -0.9548
vn -0.2785 0.8551 -0.4373
vn 0.0690 -0.8751 -0.4790
vn 0.6644 0.6623 -0.3463
vn 0.0141 -0.1976 -0.9802
vn 0.1498 -0.5183 -0.8420
vn 0.3552 -0.4796 -0.8024
vn 0.0699 0.9704 -0.2310
vn 0.7320 0.2975 -0.6129
vn 0.6537 -0.5788 -0.4875
vn 0.6016 -0.6284 0.4931
vn 0.4733 -0.6363 -0.6092
vn 0.5778 -0.6387 -0.5081
vn 0.6868 0.4995 -0.5280
vn 0.2454 -0.9694 -0.0030
vn 0.4733 -0.6366 -0.6090
vn 0.6099 0.7277 -0.3138
vn 0.9510 0.1413 -0.2749
vn 0.8046 -0.0154 0.5936
vn 0.5683 0.4283 0.7026
vn 0.9923 -0.1225 -0.0157
vn 0.3450 0.9318 -0.1128
vn 0.8728 -0.4861 -0.0438
vn 0.6531 -0.7545 0.0657
vn 0.9875 -0.0159 0.1569
vn -0.1430 -0.9879 -0.0594
vn 0.8094 -0.4987 0.3099
vn 0.5656 -0.7402 0.3636
vn 0.9567 -0.2712 0.1058
vn 0.8954 0.1291 -0.4261
vn 0.5739 0.7321 -0.3670
vn 0.8683 -0.2592 0.4230
vn 0.3721 -0.6720 0.6402
vn 0.6668 0.1699 0.7256
vn 0.5992 -0.0678 0.7977
vn 0.0351 0.3993 0.9162
vn 0.3548 0.1767 0.9181
vn -0.0279 0.7936 0.6078
vn 0.2091 0.5223 0.8267
vn 0.1636 0.4133 0.8958
vn -0.6374 0.6048 0.4775
vn -0.0204 0.1528 0.9880
vn -0.2547 -0.8210 0.5110
vn -0.1714 0.9814 0.0861
vn -0.3022 0.6035 0.7379
vn -0.5865 -0.5949 0.5497
vn -0.3754 0.8619 0.3409
vn -0.6310 0.4012 0.6640
vn -0.0975 -0.9890 -0.1112
vn -0.7610 0.3909 -0.5177
vn -0.3816 0.9167 0.1182
vn -0.2487 0.7303 0.6362
vn -0.5614 -0.8273 0.0195
vn -0.4407 -0.1884 0.8777
vn -0.6225 0.7699 0.1405
vn -0.7860 0.2962 -0.5427
vn -0.0775 -0.9945 -0.0701
vn -0.9245 0.3672 -0.1027
vn -0.9527 0.1603 -0.2583
vn -0.8451 -0.4684 -0.2576
vn -0.7750 -0.2170 -0.5935
vn -0.7739 -0.1969 -0.6019
vn -0.5854 0.2948 -0.7552
vn -0.7761 -0.2184 -0.5916
vn -0.5144 -0.6472 -0.5627
vn -0.5197 0.7432 -0.4212
vn -0.1152 -0.9925 0.0406
vn -0.6243 -0.2049 -0.7538
vn -0.1718 0.9768 -0.1279
vn -0.6016 -0.4820 -0.6370
vn -0.4264 0.8387 -0.3388
vn -0.0258 -0.7947 -0.6065
vn -0.2433 0.4295 -0.8697
vn -0.0607 -0.5181 -0.8532
vn -0.2723 0.9566 0.1041
vn 0.7813 -0.6231 -0.0374
vn -0.0262 0.7671 -0.6410
vn -0.2030 0.4705 0.8588
vn 0.6030 0.0674 -0.7949
vn 0.3900 -0.5533 0.7361
vn 0.9390 0.3198 -0.1268
vn 0.9765 0.1666 0.1369
vn 0.7218 0.4641 0.5135
vn 0.6352 0.7209 0.2772
vn 0.7998 0.5907 -0.1065
vn 0.8694 0.2521 0.4250
vn 0.8601 0.0483 0.5078
vn 0.6451 0.5604 0.5195
vn 0.9075 0.3846 -0.1692
vn 0.6354 0.7389 0.2244
vn 0.7634 0.6393 -0.0920
vn -0.3952 -0.9162 0.0660
vn -0.6071 -0.6439 -0.4656
vn 0.3039 0.4562 0.8364
vn 0.2730 -0.2272 0.9348
vn -0.7320 0.4543 -0.5077
vn -0.4306 0.8741 0.2249
vn -0.8241 -0.2632 0.5016
vn -0.9788 -0.1098 0.1729
vn -0.7198 0.5879 0.3691
vn -0.9276 0.3127 0.2044
vn -0.5624 0.4607 0.6866
vn -0.7052 -0.0425 0.7077
vn -0.7972 -0.1293 0.5897
vn -0.4627 0.3090 0.8310
vn -0.9314 -0.3629 0.0273
vn -0.8374 0.5024 0.2152
vn -0.3830 0.9193 -0.0906
vn -0.8730 -0.0367 0.4863
vn -0.9230 0.3781 0.0719
vn 0.8928 0.3924 0.2213
vn 0.9915 -0.0851 0.0985
usemtl Asteroid
s off
f 4/1/1 8/2/1 1/3/1
f 6/4/2 7/5/2 3/6/2
f 3/6/3 9/7/3 4/1/3
f 17/8/4 14/9/4 6/4/4
f 7/5/5 11/10/5 3/6/5
f 9/7/6 11/10/6 15/11/6
f 9/7/7 12/12/7 8/2/7
f 15/11/8 19/13/8 9/7/8
f 12/12/9 21/14/9 10/15/9
f 17/8/10 22/16/10 14/9/10
f 11/10/11 14/9/11 18/17/11
f 16/18/12 21/14/12 26/19/12
f 15/11/13 18/17/13 20/20/13
f 17/8/14 13/21/14 28/22/14
f 21/14/15 24/23/15 25/24/15
f 22/16/16 29/25/16 88/26/16 90/27/16
f 5/28/17 26/19/17 39/29/17
f 78/30/18 5/28/18 39/29/18
f 26/19/19 25/24/19 33/31/19
f 28/22/20 29/25/20 22/16/20
f 33/31/21 39/29/21 26/19/21
f 23/32/22 27/33/22 30/34/22
f 23/32/23 30/34/23 24/23/23
f 13/21/24 42/35/24 28/22/24
f 28/22/25 35/36/25 29/25/25
f 29/25/26 35/36/26 36/37/26
f 29/25/27 36/37/27 27/33/27
f 27/33/28 36/37/28 32/38/28
f 30/34/29 34/39/29 31/40/29
f 28/22/30 42/35/30 35/36/30
f 32/38/31 41/41/31 34/39/31
f 41/41/32 44/42/32 37/43/32
f 35/36/33 42/35/33 50/44/33
f 37/43/34 44/42/34 45/45/34
f 37/43/35 45/45/35 38/46/35
f 38/46/36 45/45/36 49/47/36
f 38/46/37 49/47/37 39/29/37
f 42/35/38 13/21/38 50/44/38
f 50/44/39 46/48/39 40/49/39
f 40/49/40 46/48/40 43/50/40
f 49/47/41 78/51/41 39/29/41
f 41/41/42 43/50/42 47/52/42
f 43/50/43 46/48/43 47/52/43
f 47/52/44 52/53/44 44/42/44
f 44/42/45 52/53/45 45/45/45
f 45/45/46 52/53/46 56/54/46
f 48/55/47 57/56/47 49/47/47
f 55/57/48 52/53/48 103/58/48 104/59/48
f 52/53/49 55/57/49 56/54/49
f 48/55/50 56/54/50 57/56/50
f 59/60/51 55/57/51 104/59/51 105/61/51
f 53/62/52 54/63/52 58/64/52
f 55/57/53 60/65/53 67/66/53
f 55/57/54 67/66/54 56/54/54
f 59/60/55 60/65/55 55/57/55
f 54/63/56 68/67/56 64/68/56
f 59/69/57 62/70/57 60/71/57
f 58/72/58 64/73/58 65/74/58
f 59/69/59 65/74/59 61/75/59
f 62/70/60 66/76/60 60/71/60
f 68/77/61 69/78/61 64/73/61
f 63/79/62 67/80/62 73/81/62
f 66/76/63 73/81/63 67/80/63
f 65/74/64 64/73/64 70/82/64
f 66/76/65 72/83/65 1/3/65
f 69/78/66 74/84/66 64/73/66
f 73/81/67 77/85/67 63/79/67
f 73/81/68 1/3/68 77/85/68
f 68/77/69 13/86/69 17/8/69
f 74/84/70 6/4/70 3/6/70
f 75/87/71 4/1/71 76/88/71
f 74/84/72 2/89/72 6/4/72
f 77/85/73 10/15/73 16/18/73
f 11/10/74 7/5/74 6/4/74 14/9/74
f 75/87/75 3/6/75 4/1/75
f 1/3/76 8/2/76 10/15/76
f 4/1/77 9/7/77 8/2/77
f 2/89/78 17/8/78 6/4/78
f 3/6/79 11/10/79 9/7/79
f 10/15/80 8/2/80 12/12/80
f 38/46/81 33/31/81 34/39/81 37/43/81
f 9/7/82 19/13/82 12/12/82
f 10/15/83 21/14/83 16/18/83
f 15/11/84 11/10/84 18/17/84
f 5/28/85 16/18/85 26/19/85
f 21/14/86 12/12/86 19/13/86
f 18/17/87 14/9/87 22/16/87
f 19/13/88 15/11/88 20/20/88
f 27/33/89 23/32/89 87/90/89 89/91/89
f 29/25/90 27/33/90 89/91/90 88/26/90
f 19/13/91 20/20/91 24/23/91
f 17/8/92 28/22/92 22/16/92
f 21/14/93 19/13/93 24/23/93
f 26/19/94 21/14/94 25/24/94
f 20/20/95 23/32/95 24/23/95
f 5/28/96 78/92/96 77/85/96 16/18/96
f 25/24/97 24/23/97 31/40/97
f 25/24/98 31/40/98 33/31/98
f 23/32/99 20/20/99 86/93/99 87/90/99
f 20/20/100 18/17/100 85/94/100 86/93/100
f 18/17/101 22/16/101 90/27/101 85/94/101
f 24/23/102 30/34/102 31/40/102
f 31/40/103 34/39/103 33/31/103
f 30/34/104 27/33/104 32/38/104
f 30/34/105 32/38/105 34/39/105
f 43/50/106 41/41/106 32/38/106 36/37/106
f 33/31/21 38/46/21 39/29/21
f 34/39/107 41/41/107 37/43/107
f 35/36/108 50/44/108 40/49/108
f 36/37/109 35/36/109 40/49/109
f 36/37/110 40/49/110 43/50/110
f 51/95/111 46/48/111 50/44/111 54/63/111
f 41/41/112 47/52/112 44/42/112
f 49/47/113 45/45/113 48/55/113
f 13/21/114 68/67/114 50/44/114
f 47/52/115 53/62/115 107/96/115 108/97/115
f 45/45/116 56/54/116 48/55/116
f 46/48/117 51/95/117 53/62/117
f 47/52/118 46/48/118 53/62/118
f 49/47/119 57/56/119 78/51/119
f 58/72/120 59/69/120 105/98/120 106/99/120
f 50/44/121 68/67/121 54/63/121
f 51/95/122 54/63/122 53/62/122
f 67/66/123 63/100/123 57/56/123 56/54/123
f 52/53/124 47/52/124 108/97/124 103/58/124
f 58/64/125 54/63/125 64/68/125
f 70/82/126 71/101/126 61/75/126 65/74/126
f 57/56/127 63/100/127 78/51/127
f 59/69/128 58/72/128 65/74/128
f 62/70/129 59/69/129 61/75/129
f 67/80/130 60/71/130 66/76/130
f 62/70/131 61/75/131 72/83/131
f 62/70/132 72/83/132 66/76/132
f 74/84/133 75/87/133 71/101/133 70/82/133
f 61/75/134 71/101/134 72/83/134
f 66/76/135 1/3/135 73/81/135
f 70/82/136 64/73/136 74/84/136
f 63/79/137 77/85/137 78/92/137
f 76/88/138 72/83/138 71/101/138 75/87/138
f 17/8/139 2/89/139 69/78/139 68/77/139
f 1/3/140 72/83/140 76/88/140
f 69/78/141 2/89/141 74/84/141
f 77/85/142 1/3/142 10/15/142
f 75/87/143 74/84/143 3/6/143
f 76/88/144 4/1/144 1/3/144
f 81/102/145 80/103/145 94/104/145 92/105/145
f 82/106/146 83/107/146 95/108/146 91/109/146
f 84/110/147 81/102/147 92/105/147 96/111/147
f 80/103/148 79/112/148 93/113/148 94/104/148
f 83/107/149 84/110/149 96/111/149 95/108/149
f 79/112/150 82/106/150 91/109/150 93/113/150
f 79/112/151 80/103/151 86/93/151 85/94/151
f 80/103/152 81/102/152 87/90/152 86/93/152
f 84/110/153 83/107/153 88/26/153 89/91/153
f 83/107/154 82/106/154 90/27/154 88/26/154
f 82/106/155 79/112/155 85/94/155 90/27/155
f 81/102/156 84/110/156 89/91/156 87/90/156
f 93/113/157 91/109/157 125/114/157 124/115/157
f 94/104/158 93/113/158 124/115/158 123/116/158
f 121/117/159 120/118/159 95/108/159 96/111/159
f 94/104/160 123/116/160 122/119/160 92/105/160
f 92/105/161 122/119/161 121/117/161 96/111/161
f 99/120/162 102/121/162 114/122/162 111/123/162
f 98/124/163 99/120/163 111/123/163 110/125/163
f 101/126/164 100/127/164 113/128/164 112/129/164
f 102/121/165 101/126/165 112/129/165 114/122/165
f 97/130/166 98/124/166 110/125/166 109/131/166
f 53/62/167 58/64/167 106/132/167 107/96/167
f 97/130/168 100/127/168 104/59/168 103/58/168
f 100/127/169 101/126/169 105/61/169 104/59/169
f 102/121/170 99/120/170 107/96/170 106/132/170
f 101/126/171 102/121/171 106/132/171 105/61/171
f 99/120/172 98/124/172 108/97/172 107/96/172
f 98/124/173 97/130/173 103/58/173 108/97/173
f 114/122/174 112/129/174 118/133/174 117/134/174 111/123/174
f 119/135/175 118/133/175 112/129/175 113/128/175
f 110/125/176 111/123/176 117/134/176 116/136/176
f 115/137/177 119/135/177 113/128/177 109/131/177
f 100/127/178 97/130/178 109/131/178 113/128/178
f 115/137/179 116/136/179 117/134/179 118/133/179 119/135/179
f 110/125/180 116/136/180 115/137/180 109/131/180
f 120/118/181 121/117/181 122/119/181 123/116/181 124/115/181 125/114/181
f 120/118/182 125/114/182 91/109/182 95/108/182
